# xmcd
#
# Track frame offsets:
#	150
#	11777
#	22080
#	33775
#	44925
#	54710
#	67862
#	80595
#
# Disc length: 1238 seconds
#
# Revision: 1
# Processed by: cddbd v1.5.2PL0 Copyright (c) Steve Scherf et al.
# Submitted via: CDmax 2.0
#
DISCID=6904d408
DTITLE=Various Artist - Risque Blues: It Ain't the Meat
DYEAR=1995
DGENRE=Blues
TTITLE0=Swallows - It Ain't the Meat
TTITLE1=Wynonie Harris - Shake That Thing
TTITLE2=Lamplighters - Salty Dog
TTITLE3=Wynonie Harris - Wasn't That Good
TTITLE4=Orville "Fats" Noel - Ride, Daddy, Ride
TTITLE5=Fluffy Hunter - The Walkin' Blues
TTITLE6=Swallows - Roll, Roll, Pretty Baby
TTITLE7=Sharps and Flats - I Knew He Would
EXTD=LABEL =King Records, Inc.\nID =kscd1416\nUPC =012676-141628\nCOPYRIGH
EXTD=T =1995\n*****\nYEAR: 1995
EXTT0=
EXTT1=
EXTT2=
EXTT3=
EXTT4=
EXTT5=
EXTT6=
EXTT7=
PLAYORDER=
